<svg width="9121" height="6322" viewBox="0 0 9121 6322" fill="none" xmlns="http://www.w3.org/2000/svg">
<path d="M1068.6 3049.22C975.428 2284.57 757.763 1733.82 1463.45 1388.34C1968.97 1140.87 2440.51 1206.56 2835.89 1605.39C2974.75 1745.45 3089.75 1899.73 3175.33 2077.01C3188.66 2104.62 3186.39 2166.86 3216.13 2159.42C3262.5 2147.83 3206 2064.34 3203.07 2016.63C3177.49 1599.46 3316.91 1220.48 3544.15 872.658C4064.23 76.5778 5211.35 -307.937 5926.74 489.157C6187.94 780.185 6257.87 1149.67 6233.54 1529.5C6217.46 1780.51 5990.03 2499.86 6094.83 2271.21C6217.49 2003.58 6507.55 1845.51 6768.81 1739.2C7228.02 1552.35 7739.22 1504.51 8202.45 1701.67C8935.44 2013.65 9391.7 2868.64 8796.47 3534.31C8586.07 3769.61 8303.69 3927.37 7989.48 3965.95C7959.79 3969.6 8107.36 4154.06 8129.01 4205.03C8464.17 4993.93 7959.23 5807.15 7201.27 6114.37C6625.47 6347.76 5964.13 6330.56 5432.27 5998.51C5014.83 5737.89 4727.96 5332.54 4469.44 4924.7C4461.48 4912.15 4295.89 4598.14 4274.43 4684C4196.88 4994.19 4014.57 5229.17 3755.48 5419.18C3173.64 5845.85 2170.15 5837.18 1830.63 5109.11C1731.26 4896.02 1698.35 4669.63 1646.23 4443.29C1611.47 4292.38 1582.84 4434.58 1530.36 4498.77C1234.95 4860.12 498.826 4902.67 205.245 4526.52C-60.2777 4186.32 23.2339 3651.73 391.284 3431.5C449.686 3396.56 1018.91 3061.67 1068.6 3049.22Z" fill="white"/>
<path d="M1069.14 3053.66C976.273 2286.7 756.399 1734.48 1463.45 1388.34C1968.97 1140.87 2440.51 1206.56 2835.89 1605.39C2974.75 1745.45 3089.75 1899.73 3175.33 2077.01C3188.66 2104.62 3186.39 2166.86 3216.13 2159.42C3262.5 2147.83 3206 2064.34 3203.07 2016.63C3177.49 1599.46 3316.91 1220.48 3544.15 872.658C4064.23 76.5778 5211.35 -307.937 5926.74 489.157C6187.94 780.185 6257.87 1149.67 6233.54 1529.5C6217.46 1780.51 5990.03 2499.86 6094.83 2271.21C6217.49 2003.58 6507.55 1845.51 6768.81 1739.2C7228.02 1552.35 7739.22 1504.51 8202.45 1701.67C8935.44 2013.65 9391.7 2868.64 8796.47 3534.31C8586.07 3769.61 8303.69 3927.37 7989.48 3965.95C7959.79 3969.6 8107.36 4154.06 8129.01 4205.03C8464.17 4993.93 7959.23 5807.15 7201.27 6114.37C6625.47 6347.76 5964.13 6330.56 5432.27 5998.51C5014.83 5737.89 4727.96 5332.54 4469.44 4924.7C4461.48 4912.15 4295.89 4598.14 4274.43 4684C4196.88 4994.19 4014.57 5229.17 3755.48 5419.18C3173.64 5845.85 2170.15 5837.18 1830.63 5109.11C1731.26 4896.02 1698.35 4669.63 1646.23 4443.29C1611.47 4292.38 1582.84 4434.58 1530.36 4498.77C1234.95 4860.12 498.826 4902.67 205.245 4526.52C-60.2777 4186.32 23.2339 3651.73 391.284 3431.5C454.748 3393.53 1121.44 3001.36 1069.14 3053.66Z" stroke="#FAFCFD" stroke-width="100" stroke-linecap="round"/>
</svg>
